<svg width="36" height="36" viewBox="0 0 36 36" fill="none" xmlns="http://www.w3.org/2000/svg">
<g clip-path="url(#clip0_3932_10884)">
<path d="M9.67188 10.1222V27.2979C9.67188 28.032 10.2459 28.6289 10.9521 28.6289L22.6362 27.1658C23.3449 27.1658 23.9164 26.5689 23.9164 25.8349V8.65911C23.9164 7.92503 23.3424 7.32812 22.6362 7.32812L10.9521 8.79119C10.2434 8.79119 9.67188 9.3881 9.67188 10.1222ZM16.502 17.8007C16.502 17.6331 16.6341 17.4959 16.7941 17.4959L21.2113 16.711C21.3738 16.711 21.5034 16.8482 21.5034 17.0158C21.5034 17.1835 21.3713 17.3206 21.2113 17.3206L16.7941 18.1055C16.6316 18.1055 16.502 17.9684 16.502 17.8007ZM12.0849 16.0532C12.0849 15.8855 12.217 15.7484 12.377 15.7484L21.2087 14.2853C21.3713 14.2853 21.5008 14.4225 21.5008 14.5901C21.5008 14.7577 21.3688 14.8949 21.2087 14.8949L12.377 16.358C12.2145 16.358 12.0849 16.2208 12.0849 16.0532ZM12.0849 13.6274C12.0849 13.4598 12.217 13.3226 12.377 13.3226L21.2087 11.8596C21.3713 11.8596 21.5008 11.9967 21.5008 12.1644C21.5008 12.332 21.3688 12.4692 21.2087 12.4692L12.377 13.9322C12.2145 13.9322 12.0849 13.7951 12.0849 13.6274Z" fill="url(#paint0_linear_3932_10884)"/>
<path d="M10.5396 8.48769L23.0518 6.96875C23.8088 6.96875 24.4235 7.58598 24.4235 8.35053V26.1715C24.4235 26.9335 23.8088 27.5532 23.0518 27.5532L10.5396 29.0722C9.78266 29.0722 9.16797 28.455 9.16797 27.6904V9.86948C9.16797 9.10746 9.78266 8.48769 10.5396 8.48769Z" stroke="url(#paint1_linear_3932_10884)" stroke-width="1.27002" stroke-miterlimit="10"/>
<path d="M10.0918 7.80785L23.4981 6.17969C24.3109 6.17969 24.9688 6.84264 24.9688 7.65799V26.7515C24.9688 27.5694 24.3109 28.2298 23.4981 28.2298L10.0918 29.8579C9.27896 29.8579 8.62109 29.195 8.62109 28.3796V9.28616C8.62109 8.46826 9.27896 7.80785 10.0918 7.80785Z" stroke="url(#paint2_linear_3932_10884)" stroke-width="1.01602" stroke-miterlimit="10"/>
<path d="M20.4414 23.4731L29.4332 14.3086" stroke="url(#paint3_linear_3932_10884)" stroke-width="2.79913" stroke-miterlimit="10" stroke-linecap="round"/>
<path d="M18.7061 25.5021L21.0074 24.7655C21.203 24.702 21.2665 24.4556 21.1217 24.3083L19.6205 22.764C19.4757 22.6166 19.2268 22.67 19.1582 22.8656L18.3581 25.144C18.2819 25.3599 18.4851 25.5707 18.7061 25.5021Z" fill="url(#paint4_linear_3932_10884)"/>
</g>
<defs>
<linearGradient id="paint0_linear_3932_10884" x1="23.9164" y1="17.9785" x2="9.67188" y2="17.9785" gradientUnits="userSpaceOnUse">
<stop stop-color="#DEE0FD"/>
<stop offset="1" stop-color="#5451EC"/>
</linearGradient>
<linearGradient id="paint1_linear_3932_10884" x1="26.7578" y1="23.7711" x2="6.83367" y2="12.2673" gradientUnits="userSpaceOnUse">
<stop stop-color="#DEE0FD"/>
<stop offset="1" stop-color="#5451EC"/>
</linearGradient>
<linearGradient id="paint2_linear_3932_10884" x1="25.4768" y1="18.0214" x2="8.11309" y2="18.0214" gradientUnits="userSpaceOnUse">
<stop stop-color="#DEE0FD"/>
<stop offset="1" stop-color="#5451EC"/>
</linearGradient>
<linearGradient id="paint3_linear_3932_10884" x1="19.0418" y1="18.8908" x2="30.8327" y2="18.8908" gradientUnits="userSpaceOnUse">
<stop stop-color="#5451EC"/>
<stop offset="1" stop-color="#ABABF7"/>
</linearGradient>
<linearGradient id="paint4_linear_3932_10884" x1="20.3092" y1="25.3372" x2="19.5612" y2="22.967" gradientUnits="userSpaceOnUse">
<stop stop-color="#DEE0FD"/>
<stop offset="1" stop-color="#5451EC"/>
</linearGradient>
<clipPath id="clip0_3932_10884">
<rect width="36" height="36" fill="white"/>
</clipPath>
</defs>
</svg>
